<svg width="120" height="24" viewBox="0 0 120 24" fill="none" xmlns="http://www.w3.org/2000/svg">
<g clip-path="url(#clip0_144_5115)">
<path d="M37.9403 10.6345C36.0863 9.35213 32.9729 9.78394 30.9275 10.232C29.5315 10.5371 28.1582 10.9332 26.7784 11.3001C25.2817 11.6962 24.7493 11.9007 23.4214 11.0339C21.2787 9.63458 19.1522 8.20283 17.0224 6.78083C20.8112 5.46596 24.5999 4.20308 28.4471 3.05702C30.2977 2.50511 32.2878 1.67398 34.2065 1.44672C35.463 1.30063 35.5409 1.83631 36.174 2.7908C36.5863 3.41415 37.9466 4.62188 38.3201 3.11871C38.5376 2.24213 37.3622 1.35906 36.7519 0.917531C34.2033 -0.926524 31.0022 0.437036 28.2945 1.30063C24.8175 2.4142 21.3631 3.5992 17.899 4.75823C17.136 5.01473 15.9543 5.63156 15.1427 5.47898C14.4966 5.35886 13.8213 4.79393 13.198 4.52123C11.6364 3.8427 9.95464 3.5018 8.28915 3.18689C6.61065 2.87197 4.96466 2.61224 3.26019 2.93041C2.1661 3.13494 0.221401 3.5018 0.0266065 4.81016C-0.324024 7.15744 2.87385 8.61518 4.73089 8.6736C6.44183 8.7288 8.25668 8.35219 9.95138 8.13143C11.4026 7.9431 13.2402 7.38147 14.7044 7.52757C16.0582 7.66392 17.3471 9.05022 18.4314 9.84237C19.8405 10.8715 21.2462 11.9105 22.652 12.9428C21.3209 13.5402 19.9931 14.1506 18.6555 14.7382C17.3114 15.3258 16.8081 15.4914 15.4836 14.8875C13.0129 13.761 10.3929 12.7156 7.60088 13.248C5.13671 13.7155 5.9451 16.0044 7.56514 16.9459C8.62354 17.5595 9.05532 17.553 10.2046 17.6828C11.3279 17.8127 12.3506 18.5757 13.5194 18.7283C14.9479 18.9133 15.9348 18.2315 17.2562 18.1698C18.4152 18.1146 19.4184 19.1308 20.3047 19.7704C22.441 21.3093 24.509 22.8351 27.0933 23.5299C28.2361 23.8383 31.1645 24.6857 31.4405 22.8839C31.5671 22.0657 31.0054 21.0008 30.2847 20.66C29.9211 20.4879 29.4568 20.4035 29.064 20.5528C28.2264 20.8677 28.4763 20.9943 28.7263 21.8093C26.181 21.8093 23.837 20.3775 21.8046 18.9393C21.3663 18.6308 19.6294 17.7153 19.795 17.027C19.9508 16.3777 22.3014 15.6667 22.8306 15.4167C24.2493 14.7414 24.9181 14.4103 26.457 14.8323C27.84 15.2122 29.2069 15.6505 30.5834 16.0401C32.9469 16.7089 35.6708 17.0465 37.9013 15.6635C39.7519 14.5207 39.6964 11.8488 37.9403 10.6345ZM5.99381 7.57302C4.88348 7.61847 1.14992 7.15421 1.22459 5.54066C1.30901 3.77126 5.79252 3.97579 6.94508 4.08293C8.12033 4.19006 9.24364 4.52123 10.3637 4.88486C11.2695 5.17703 13.0486 5.37506 12.9902 6.38475C10.6949 6.82631 8.33134 7.47563 5.99381 7.57302ZM9.65918 16.5693C8.72742 16.4102 6.33795 16.1764 7.17233 14.8811C7.91903 13.722 9.83775 14.3746 10.8669 14.5921C11.7695 14.7837 14.7433 15.2577 14.594 16.2154C12.9999 16.7446 11.315 16.8517 9.65918 16.5693ZM38.2778 13.3811C37.7325 15.3908 34.3234 15.1862 32.8008 14.9849C31.645 14.8291 30.5152 14.4882 29.3984 14.1636C28.9211 14.024 28.0738 13.9655 27.7101 13.6733C27.2881 13.3325 27.3758 13.4688 27.392 12.7968C29.7101 12.2026 32.0671 11.3813 34.4566 11.1702C35.7357 11.0566 38.823 11.3715 38.2778 13.3811Z" fill="#2BBAA6"/>
<path d="M55.442 8.32153V21.782H51.4094V8.32153H55.442ZM55.5509 4.45232C55.5509 5.59673 54.6245 6.49591 53.3984 6.49591C52.2269 6.49591 51.2732 5.59673 51.2732 4.45232C51.2732 3.33515 52.2269 2.46322 53.3984 2.46322C54.6245 2.46322 55.5509 3.33515 55.5509 4.45232ZM61.0929 12.5722C61.0929 14.1798 67.9049 13.4169 67.9049 17.6676C67.9049 20.4469 65.4526 22 62.4006 22C60.466 22 58.5316 21.0463 57.0057 19.5204L59.6485 16.8774C60.4117 17.8038 61.5016 18.5123 62.4006 18.594C63.3 18.6758 64.0628 18.2943 64.1991 17.8856C64.5262 16.8501 62.6458 16.7956 62.0739 16.6322C59.921 15.9782 57.4144 15.079 57.4144 12.4087C57.4144 9.22071 60.7384 8.13079 62.4006 8.13079C64.308 8.13079 66.2427 9.00272 67.7959 10.5831L65.1801 13.1989C64.4716 12.2725 63.2454 11.5368 62.4006 11.5368C61.9646 11.5368 61.0929 11.7003 61.0929 12.5722ZM82.384 14.0981V21.782H78.3511V14.0981C78.3511 12.0272 77.8062 11.1553 76.2259 11.1553C74.591 11.1553 73.6374 12.0272 73.6374 14.0981V21.782H69.6048V2H73.6374V9.82016C74.155 8.32153 76.117 8.13079 77.2885 8.13079C81.049 8.13079 82.384 9.9564 82.384 14.0981ZM88.6342 8.32153V21.782H84.6016V8.32153H88.6342ZM88.7431 4.45232C88.7431 5.59673 87.8167 6.49591 86.5906 6.49591C85.4191 6.49591 84.4654 5.59673 84.4654 4.45232C84.4654 3.33515 85.4191 2.46322 86.5906 2.46322C87.8167 2.46322 88.7431 3.33515 88.7431 4.45232ZM99.8163 21.782L95.4566 16.2507C95.3477 16.3597 95.1571 16.4959 94.9936 16.6322V21.782H90.9337V2H94.9936V11.7003L98.8626 8.32153H104.884L98.3723 13.7711C100.361 16.2234 102.977 19.4114 104.884 21.782H99.8163ZM112.415 11.455C110.753 11.455 109.364 12.9264 109.364 15.079C109.364 17.2044 110.753 18.6757 112.415 18.6757C114.105 18.6757 115.495 17.2044 115.495 15.079C115.495 12.9264 114.105 11.455 112.415 11.455ZM112.415 8.13079C116.366 8.13079 119.527 11.1008 119.527 15.079C119.527 19.0572 116.366 22 112.415 22C108.492 22 105.331 19.0572 105.331 15.079C105.331 11.1008 108.492 8.13079 112.415 8.13079Z" fill="#111111"/>
</g>
<defs>
<clipPath id="clip0_144_5115">
<rect width="120" height="24" fill="white"/>
</clipPath>
</defs>
</svg>
